<?xml version="1.0" encoding="UTF-8" standalone="no"?>
<!-- Created with Inkscape (http://www.inkscape.org/) -->

<svg
   width="512"
   height="512"
   viewBox="0 0 135.46666 135.46667"
   version="1.1"
   id="svg1"
   inkscape:version="1.3.2 (091e20ef0f, 2023-11-25)"
   sodipodi:docname="ads_notxt.svg"
   xmlns:inkscape="http://www.inkscape.org/namespaces/inkscape"
   xmlns:sodipodi="http://sodipodi.sourceforge.net/DTD/sodipodi-0.dtd"
   xmlns="http://www.w3.org/2000/svg"
   xmlns:svg="http://www.w3.org/2000/svg">
  <sodipodi:namedview
     id="namedview1"
     pagecolor="#ffffff"
     bordercolor="#999999"
     borderopacity="1"
     inkscape:showpageshadow="2"
     inkscape:pageopacity="0"
     inkscape:pagecheckerboard="0"
     inkscape:deskcolor="#ffffff"
     inkscape:document-units="px"
     showborder="true"
     showguides="true"
     inkscape:zoom="1"
     inkscape:cx="279"
     inkscape:cy="279.5"
     inkscape:window-width="1920"
     inkscape:window-height="1011"
     inkscape:window-x="0"
     inkscape:window-y="0"
     inkscape:window-maximized="1"
     inkscape:current-layer="svg1" />
  <defs
     id="defs1">
    <inkscape:path-effect
       effect="powerstroke"
       id="path-effect9"
       is_visible="true"
       lpeversion="1.3"
       scale_width="1"
       interpolator_type="CentripetalCatmullRom"
       interpolator_beta="0.2"
       start_linecap_type="zerowidth"
       end_linecap_type="zerowidth"
       offset_points="0.22890604,0.56793869 | 0.50111919,0.80822828 | 0.79892384,0.65421748"
       linejoin_type="round"
       miter_limit="4"
       not_jump="false"
       sort_points="true"
       message="&lt;b&gt;Ctrl + click&lt;/b&gt; on existing node and move it" />
    <inkscape:path-effect
       effect="powerstroke"
       id="path-effect3"
       is_visible="true"
       lpeversion="1.3"
       scale_width="1"
       interpolator_type="CentripetalCatmullRom"
       interpolator_beta="0.2"
       start_linecap_type="zerowidth"
       end_linecap_type="zerowidth"
       offset_points="1.1592627,3.1543119 | 3.2213403,8.5202795 | 5.2749864,3.9660109"
       linejoin_type="miter"
       miter_limit="4"
       not_jump="false"
       sort_points="true"
       message="&lt;b&gt;Ctrl + click&lt;/b&gt; on existing node and move it" />
    <inkscape:path-effect
       effect="powerstroke"
       id="path-effect2"
       is_visible="true"
       lpeversion="1.3"
       scale_width="1"
       interpolator_type="CentripetalCatmullRom"
       interpolator_beta="0.2"
       start_linecap_type="zerowidth"
       end_linecap_type="zerowidth"
       offset_points="0.2,0.224896 | 3,0.224896 | 5.8,0.224896"
       linejoin_type="round"
       miter_limit="4"
       not_jump="false"
       sort_points="true"
       message="&lt;b&gt;Ctrl + click&lt;/b&gt; on existing node and move it" />
    <inkscape:path-effect
       effect="powerstroke"
       id="path-effect1"
       is_visible="true"
       lpeversion="1.3"
       scale_width="1"
       interpolator_type="CentripetalCatmullRom"
       interpolator_beta="0.2"
       start_linecap_type="zerowidth"
       end_linecap_type="zerowidth"
       offset_points="0.2130758,2.1478265 | 0.50828922,2.7929749 | 0.81401811,2.5845545"
       linejoin_type="round"
       miter_limit="4"
       not_jump="false"
       sort_points="true"
       message="&lt;b&gt;Ctrl + click&lt;/b&gt; on existing node and move it" />
  </defs>
  <g
     inkscape:label="Layer 1"
     inkscape:groupmode="layer"
     id="layer1">
    <circle
       style="fill:#5b2d07;stroke:none;stroke-width:0.449792;stroke-opacity:0.992157;paint-order:stroke fill markers"
       id="path7"
       cx="67.733353"
       cy="80.874657"
       r="53.685612" />
    <path
       id="path8"
       style="fill:#fed1aa;stroke:none;stroke-width:0.449792;stroke-opacity:0.992157;paint-order:stroke fill markers"
       d="M 59.28785,18.21749 42.39638,44.02263 v 70.65874 H 67.73333 93.07029 V 44.02263 L 76.17881,18.21749 Z m 8.44548,4.98522 a 4.68891,4.68891 0 0 1 4.68912,4.68912 4.68891,4.68891 0 0 1 -4.68912,4.68861 4.68891,4.68891 0 0 1 -4.68912,-4.68861 4.68891,4.68891 0 0 1 4.68912,-4.68912 z" />
    <path
       id="path9"
       style="fill:#5b2d07;stroke-width:0.449792;stroke-opacity:0.992157;paint-order:stroke fill markers"
       d="m 81.333019,0.90639941 c -0.989534,0.76759299 -2.459534,1.97540369 -3.71347,3.53931649 -0.578782,0.7218526 -1.03177,1.420372 -1.37924,2.0810096 -0.223264,0.424483 -0.418012,0.8570263 -0.585494,1.2996637 -0.4017,1.0616383 -0.617294,2.0979243 -0.749826,3.1362398 -0.124457,0.975091 -0.178315,2.004957 -0.249079,2.846855 10e-6,-6.7e-5 -0.0021,0.02487 -0.0021,0.0248 -0.07856,0.928533 -0.183208,1.798828 -0.413415,2.64842 -0.161402,0.595678 -0.383954,1.170185 -0.691944,1.734775 -0.14145,0.259293 -0.299056,0.516453 -0.480073,0.772562 -0.0998,0.141198 -0.206379,0.282164 -0.319364,0.422713 -0.529244,0.658362 -1.250982,1.376341 -2.300118,2.145608 -0.851538,0.624376 -1.779338,1.177329 -2.659781,1.648476 a 4.6889099,4.68891 61.721223 0 1 0.244428,0.01705 c 0.858818,-0.408687 1.766558,-0.886706 2.621549,-1.433486 1.146654,-0.733336 2.000681,-1.45963 2.641702,-2.165758 0.136445,-0.150297 0.26557,-0.30249 0.388091,-0.455786 0.25089,-0.313922 0.469092,-0.630839 0.661456,-0.951366 0.352961,-0.588121 0.615792,-1.18815 0.810291,-1.802991 0.290902,-0.919613 0.425039,-1.848372 0.514694,-2.791558 6e-6,-4.5e-5 0.0026,-0.02478 0.0026,-0.02482 0.08418,-0.893671 0.1357,-1.851044 0.248567,-2.8267 0.116576,-1.0077702 0.293485,-1.9782982 0.614434,-2.9755304 0.133571,-0.4150254 0.287465,-0.8206254 0.463534,-1.221112 0.274279,-0.6238793 0.619847,-1.2891929 1.088307,-2.0034987 1.022066,-1.558445 2.302649,-2.8332646 3.244246,-3.66488907 z" />
    <g
       id="g21"
       transform="translate(616.71685,-207.25246)"
       style="stroke:#5b2d07;stroke-opacity:1">
      <path
         id="path17"
         style="opacity:1;fill:none;stroke:#5b2d07;stroke-width:2.64583;stroke-linecap:round;stroke-linejoin:round;stroke-dasharray:none;stroke-opacity:1;paint-order:stroke fill markers"
         d="m -548.98352,259.49322 c 3.349,0 6.38095,1.3597 8.57565,3.55801" />
      <path
         style="opacity:1;fill:none;stroke:#5b2d07;stroke-width:2.64583;stroke-linecap:round;stroke-linejoin:round;stroke-dasharray:none;stroke-opacity:1;paint-order:stroke fill markers"
         d="m -561.11132,271.64105 c 0,-6.70906 5.4298,-12.14783 12.1278,-12.14783"
         id="path13" />
      <path
         style="opacity:1;fill:none;stroke:#5b2d07;stroke-width:2.64583;stroke-linecap:round;stroke-linejoin:round;stroke-dasharray:none;stroke-opacity:1;paint-order:stroke fill markers"
         d="m -548.98352,283.78888 c -6.698,0 -12.1278,-5.43877 -12.1278,-12.14783"
         id="path12" />
      <path
         id="path18"
         style="opacity:1;fill:none;stroke:#5b2d07;stroke-width:2.64583;stroke-linecap:round;stroke-linejoin:round;stroke-dasharray:none;stroke-opacity:1;paint-order:stroke fill markers"
         d="m -548.98352,308.08455 c -3.34899,0 -6.38095,-1.3597 -8.57565,-3.55802" />
      <path
         style="opacity:1;fill:none;stroke:#5b2d07;stroke-width:2.64583;stroke-linecap:round;stroke-linejoin:round;stroke-dasharray:none;stroke-opacity:1;paint-order:stroke fill markers"
         d="m -536.85571,295.93671 c 0,6.70906 -5.42981,12.14784 -12.12781,12.14784"
         id="path19" />
      <path
         style="opacity:1;fill:none;stroke:#5b2d07;stroke-width:2.64583;stroke-linecap:round;stroke-linejoin:round;stroke-dasharray:none;stroke-opacity:1;paint-order:stroke fill markers"
         d="m -548.98352,283.78888 c 6.698,0 12.12781,5.43878 12.12781,12.14783"
         id="path20" />
    </g>
    <path
       style="fill:none;stroke:#5b2d07;stroke-width:2.64583;stroke-linecap:round;stroke-linejoin:round;stroke-dasharray:none;stroke-opacity:1;paint-order:stroke fill markers"
       d="M 67.73334,107.06427 V 46.00858"
       id="path21"
       sodipodi:nodetypes="cc" />
  </g>
</svg>
